<?xml version="1.0" standalone="no"?>
<!DOCTYPE svg PUBLIC "-//W3C//DTD SVG 20010904//EN"
 "http://www.w3.org/TR/2001/REC-SVG-20010904/DTD/svg10.dtd">
<svg version="1.0" xmlns="http://www.w3.org/2000/svg"
 width="311.000000pt" height="162.000000pt" viewBox="0 0 311.000000 162.000000"
 preserveAspectRatio="xMidYMid meet">

<g transform="translate(0.000000,162.000000) scale(0.100000,-0.100000)"
fill="#000000" stroke="none">
<path d="M650 1120 c-13 -8 -15 -54 -15 -310 0 -256 2 -302 15 -310 9 -6 142
-10 312 -10 284 0 298 1 308 19 6 12 10 127 10 305 0 245 -2 287 -16 300 -13
14 -55 16 -307 16 -167 0 -298 -4 -307 -10z m407 -109 c108 -55 154 -187 104
-297 -34 -75 -125 -134 -206 -134 -80 0 -167 56 -205 131 -24 47 -26 134 -4
187 50 120 195 173 311 113z"/>
<path d="M940 892 c0 -15 24 -32 46 -32 16 0 23 -8 28 -30 3 -18 12 -30 21
-30 11 0 15 12 15 50 l0 50 -55 0 c-30 0 -55 -4 -55 -8z"/>
<path d="M890 842 c0 -15 24 -32 45 -32 11 0 26 -9 33 -21 10 -15 10 -19 1
-14 -7 5 -10 3 -7 -5 2 -8 9 -15 15 -17 12 -4 28 71 18 87 -7 12 -105 14 -105
2z"/>
<path d="M840 790 c0 -12 24 -30 40 -30 9 0 21 -13 27 -30 17 -46 33 -36 33
20 l0 51 -50 -2 c-27 -2 -50 -5 -50 -9z"/>
<path d="M1840 1086 c4 -4 16 -4 26 2 16 9 14 10 -8 9 -15 -1 -23 -6 -18 -11z"/>
<path d="M1916 1069 c3 -5 -1 -9 -9 -9 -8 0 -17 -7 -21 -15 -3 -8 -15 -15 -27
-15 -16 0 -20 5 -16 20 3 11 1 20 -4 20 -5 0 -9 -119 -9 -279 0 -228 3 -281
14 -290 10 -9 96 -12 305 -11 160 0 297 3 305 6 18 7 26 59 25 179 -1 114 -10
192 -22 185 -11 -7 -36 39 -37 67 0 16 -4 21 -15 17 -8 -4 -15 -2 -15 3 0 5
-7 10 -15 10 -8 0 -15 -4 -15 -9 0 -5 -5 -6 -11 -2 -6 3 -3 -8 6 -26 22 -43
30 -125 16 -175 -30 -112 -163 -187 -277 -156 -140 38 -209 193 -144 326 14
28 24 53 22 58 -1 4 1 6 6 5 4 -2 18 5 32 15 13 9 19 17 12 17 -7 0 -10 4 -7
10 3 6 -1 7 -10 4 -17 -7 -68 23 -60 35 2 5 -4 11 -15 14 -11 3 -18 1 -14 -4z
m38 -110 c-3 -5 -10 -7 -15 -3 -5 3 -7 10 -3 15 3 5 10 7 15 3 5 -3 7 -10 3
-15z m454 -47 c2 -7 -2 -10 -12 -6 -9 3 -16 11 -16 16 0 13 23 5 28 -10z"/>
<path d="M2310 983 c0 -16 25 -23 41 -11 11 8 11 9 -2 5 -9 -3 -22 0 -28 6 -8
8 -11 8 -11 0z"/>
<path d="M1480 855 c-13 -14 -30 -25 -39 -25 -11 0 -9 -7 10 -25 17 -17 31
-24 43 -19 15 6 15 8 1 24 -14 15 -13 18 3 33 17 16 20 16 41 -7 14 -15 30
-22 44 -19 34 7 52 -19 29 -41 -18 -15 -20 -15 -37 4 -18 20 -55 28 -55 12 0
-11 54 -62 66 -62 5 1 26 16 47 34 35 31 36 35 22 50 -9 9 -27 16 -39 16 -12
0 -33 11 -46 25 -13 14 -33 25 -45 25 -12 0 -32 -11 -45 -25z"/>
<path d="M2231 815 c1 -11 1 -33 0 -49 l-1 -29 -81 7 -81 8 23 -31 c25 -34 31
-39 23 -16 -4 8 -1 15 5 15 7 0 28 -7 48 -15 46 -19 46 -19 82 11 34 28 41 61
15 71 -9 3 -20 15 -25 27 -8 20 -9 20 -8 1z"/>
<path d="M2050 803 c0 -16 -2 -16 -11 -3 -8 12 -9 10 -7 -9 4 -36 23 -36 26
-1 1 16 0 30 -3 30 -3 0 -5 -8 -5 -17z"/>
</g>
</svg>
